<svg width="24" height="24" viewBox="0 0 24 24" fill="none" xmlns="http://www.w3.org/2000/svg">
  <path fill-rule="evenodd" clip-rule="evenodd" d="M8.34146 2.00012C7.51304 2.00012 6.84146 2.67169 6.84146 3.50012C6.84146 4.32855 7.51304 5.00012 8.34146 5.00012H18.7578V14.4235C18.7578 15.2519 19.4294 15.9235 20.2578 15.9235C21.0863 15.9235 21.7578 15.2519 21.7578 14.4235V4.50012C21.7578 3.11941 20.6386 2.00012 19.2578 2.00012H8.34146ZM3 6.91476H16.122C16.6742 6.91476 17.122 7.36247 17.122 7.91476V21.0367C17.122 21.589 16.6742 22.0367 16.122 22.0367H3C2.44772 22.0367 2 21.589 2 21.0367V7.91476C2 7.36247 2.44772 6.91476 3 6.91476Z" fill="white" />
</svg>